<svg width="50" height="43" viewBox="0 0 50 43" fill="none" xmlns="http://www.w3.org/2000/svg">
<path d="M39.3254 10.6199C44.5471 8.11776 47.2978 4.98022 45.4693 3.61206C43.6407 2.24388 37.9254 3.16318 32.7038 5.66534C27.4822 8.16753 24.7315 11.305 26.5599 12.6732C28.3884 14.0414 34.1037 13.1221 39.3254 10.6199Z" fill="#29C16E"/>
<path d="M21.8125 13.0771C23.3841 12.1361 21.1603 9.27867 16.8454 6.69494C12.5306 4.11123 7.75865 2.77959 6.18709 3.72064C4.61552 4.66169 6.83938 7.5191 11.1542 10.1028C15.4691 12.6865 20.241 14.0182 21.8125 13.0771Z" fill="#29C16E"/>
<path d="M42.9612 26.9797C45.2462 25.885 43.7108 22.4627 39.5323 19.3359C35.3537 16.2092 30.1139 14.5621 27.829 15.6569C25.5442 16.7518 27.0794 20.1741 31.2581 23.3007C35.4366 26.4275 40.6765 28.0746 42.9612 26.9797Z" fill="#EF3C56"/>
<path d="M5.12316 28.1589C5.12316 31.416 7.28394 34.5397 11.1301 36.8427C14.9763 39.1459 20.1929 40.4397 25.6323 40.4397C36.9595 40.4397 53.8668 29.3148 43.0976 27.2165C31.2822 24.915 25.8331 16.1164 23.3843 15.952C12.1282 15.1956 5.12316 21.3764 5.12316 28.1589Z" fill="#EF3C56"/>
<path d="M0.00993867 1.85354C0.0157334 4.50151 1.20362 7.10041 3.45058 9.38108C5.69752 11.6618 8.92185 13.5413 12.7896 14.825C10.7626 15.4982 8.90268 16.3378 7.264 17.3194C3.58788 19.5185 1.15972 22.3541 0.323156 25.425C-0.513413 28.4959 0.283969 31.6466 2.60246 34.4312C4.92093 37.2158 8.64311 39.4933 13.2423 40.9415C17.8414 42.3895 23.0846 42.935 28.23 42.5004C33.3753 42.0659 38.1623 40.6736 41.9133 38.5203C45.6643 36.367 48.1893 33.562 49.1313 30.5021C50.0734 27.4421 49.3847 24.2823 47.1623 21.4696C44.9403 18.6571 41.2971 16.3342 36.7489 14.8296C40.6219 13.5477 43.8506 11.6682 46.1003 9.38642C48.35 7.10461 49.5383 4.50373 49.5417 1.85395C49.5417 1.61049 49.4618 1.36941 49.3062 1.14448C49.1509 0.91954 48.9228 0.715158 48.6354 0.542999C48.3476 0.37084 48.0063 0.234281 47.6306 0.141121C47.2553 0.0479612 46.8527 2.62225e-05 46.446 5.27282e-05C43.1923 -0.00515961 39.9689 0.376118 36.9632 1.12182C33.9571 1.86752 31.2278 2.96283 28.9335 4.34437C27.2943 5.32563 25.8922 6.43934 24.7681 7.65309C22.626 5.3362 19.4876 3.40473 15.6785 2.05913C11.8693 0.71351 7.52822 0.00277088 3.10563 0.00065611C2.69918 0.000603116 2.29671 0.0484892 1.92117 0.141577C1.54563 0.234664 1.20439 0.371131 0.916923 0.543187C0.629463 0.715243 0.401413 0.91952 0.245792 1.14435C0.0901711 1.36918 0.0100272 1.61017 0.00993867 1.85354ZM28.1869 12.7846C28.8761 10.5798 30.6623 8.55127 33.3111 6.96512C35.9598 5.37897 39.3476 4.3093 43.0295 3.89648C42.3351 6.09993 40.5471 8.12681 37.8995 9.71241C35.2516 11.298 31.8666 12.3687 28.1869 12.7846ZM37.9035 19.9446C40.5531 21.5288 42.3402 23.5562 43.0295 25.7599C39.3516 25.3435 35.9682 24.2732 33.3215 22.6882C30.6746 21.1033 28.8869 19.0776 28.1916 16.8752C31.8721 17.2879 35.2576 18.358 37.9035 19.9446ZM11.6414 19.941C14.4185 18.2693 18.0165 17.174 21.9086 16.8156C22.6381 20.0319 25.1085 23.0163 28.9413 25.3114C32.7741 27.6065 37.7576 29.086 43.1289 29.523C42.6764 31.2582 41.544 32.9047 39.8244 34.3275C38.105 35.7502 35.8473 36.9091 33.236 37.7088C30.6248 38.5088 27.7344 38.927 24.8014 38.9294C21.8683 38.9317 18.9761 38.5183 16.3613 37.7226C13.7465 36.9269 11.4835 35.7718 9.7576 34.3517C8.03165 32.9318 6.89183 31.2871 6.43142 29.5526C5.97097 27.8182 6.20305 26.043 7.10857 24.3725C8.01413 22.7019 9.56744 21.1838 11.6414 19.9418V19.941ZM6.52006 3.8991C10.1982 4.31544 13.5815 5.38593 16.2284 6.97089C18.8753 8.55587 20.6631 10.5818 21.3584 12.7842C17.6804 12.3678 14.2974 11.2973 11.6507 9.71231C9.00399 8.12733 7.21652 6.1015 6.52141 3.8991H6.52006Z" fill="#0E1E28"/>
</svg>
