<svg width="313" height="70" viewBox="0 0 313 70" fill="none" xmlns="http://www.w3.org/2000/svg">
<path d="M18.2031 51.4102C15.4427 51.4102 13.0404 50.8372 10.9961 49.6914C8.95182 48.5326 7.36979 46.8984 6.25 44.7891C5.14323 42.6667 4.58984 40.1602 4.58984 37.2695V36.3125C4.58984 33.5521 5.1237 31.1107 6.19141 28.9883C7.27214 26.8529 8.80859 25.1797 10.8008 23.9688C12.793 22.7578 15.1628 22.1523 17.9102 22.1523C19.8372 22.1523 21.6406 22.4258 23.3203 22.9727C25.013 23.5195 26.5234 24.3529 27.8516 25.4727V32.3477H23.6133L23.0273 28.0312C22.5977 27.7188 22.1289 27.4518 21.6211 27.2305C21.1133 27.0091 20.5599 26.8398 19.9609 26.7227C19.375 26.6055 18.737 26.5469 18.0469 26.5469C16.4323 26.5469 15.0456 26.944 13.8867 27.7383C12.7279 28.5326 11.8359 29.6589 11.2109 31.1172C10.599 32.5625 10.293 34.2812 10.293 36.2734V37.2695C10.293 39.2617 10.6185 40.987 11.2695 42.4453C11.9206 43.9036 12.8451 45.0365 14.043 45.8438C15.2409 46.638 16.6602 47.0352 18.3008 47.0352C19.1211 47.0352 19.9414 46.944 20.7617 46.7617C21.5951 46.5664 22.3503 46.319 23.0273 46.0195L23.6133 42.0156H27.8516V48.8125C26.7448 49.5417 25.3646 50.1602 23.7109 50.668C22.0573 51.1628 20.2214 51.4102 18.2031 51.4102ZM40.7031 51.4102C38.6198 51.4102 36.8294 50.9544 35.332 50.043C33.8346 49.1315 32.6888 47.8685 31.8945 46.2539C31.1003 44.6263 30.7031 42.7578 30.7031 40.6484V40.2383C30.7031 38.1419 31.1003 36.2865 31.8945 34.6719C32.6888 33.0443 33.8281 31.7747 35.3125 30.8633C36.8099 29.9388 38.5938 29.4766 40.6641 29.4766C42.7604 29.4766 44.5508 29.9388 46.0352 30.8633C47.5195 31.7747 48.6589 33.0378 49.4531 34.6523C50.2474 36.2669 50.6445 38.1289 50.6445 40.2383V40.6484C50.6445 42.7578 50.2474 44.6263 49.4531 46.2539C48.6589 47.8685 47.5195 49.1315 46.0352 50.043C44.5508 50.9544 42.7734 51.4102 40.7031 51.4102ZM40.7031 47.0352C41.6927 47.0352 42.5 46.7682 43.125 46.2344C43.75 45.7005 44.2122 44.9583 44.5117 44.0078C44.8112 43.0443 44.9609 41.9245 44.9609 40.6484V40.2383C44.9609 38.9883 44.8112 37.888 44.5117 36.9375C44.2122 35.974 43.7435 35.2253 43.1055 34.6914C42.4805 34.1445 41.6667 33.8711 40.6641 33.8711C39.6875 33.8711 38.8802 34.1445 38.2422 34.6914C37.6042 35.2253 37.1354 35.974 36.8359 36.9375C36.5495 37.888 36.4062 38.9883 36.4062 40.2383V40.6484C36.4062 41.9245 36.5495 43.0443 36.8359 44.0078C37.1354 44.9714 37.6042 45.7201 38.2422 46.2539C38.8802 46.7747 39.7005 47.0352 40.7031 47.0352ZM52.9883 51V47.582L55.7227 46.9961V33.8906L52.6953 33.3047V29.8672H61.0352L61.2891 32.8945C61.9922 31.8138 62.8581 30.974 63.8867 30.375C64.9284 29.776 66.1133 29.4766 67.4414 29.4766C69.5378 29.4766 71.1784 30.1471 72.3633 31.4883C73.5482 32.8294 74.1406 34.9323 74.1406 37.7969V46.9961L76.875 47.582V51H65.9766V47.582L68.418 46.9961V37.8164C68.418 36.3971 68.138 35.3945 67.5781 34.8086C67.0182 34.2096 66.1849 33.9102 65.0781 33.9102C64.2578 33.9102 63.5417 34.0859 62.9297 34.4375C62.3307 34.776 61.8294 35.2643 61.4258 35.9023V46.9961L63.7305 47.582V51H52.9883ZM88.6328 51.4102C86.6146 51.4102 84.8503 50.9674 83.3398 50.082C81.8294 49.1836 80.6576 47.9531 79.8242 46.3906C79.0039 44.8281 78.5938 43.0443 78.5938 41.0391V40.2578C78.5938 38.1615 78.9844 36.306 79.7656 34.6914C80.5469 33.0638 81.6471 31.7878 83.0664 30.8633C84.4987 29.9258 86.1849 29.4635 88.125 29.4766C90.0391 29.4766 91.6471 29.8542 92.9492 30.6094C94.2513 31.3646 95.2409 32.4518 95.918 33.8711C96.5951 35.2904 96.9336 37.0091 96.9336 39.0273V42.1328H84.5117L84.4727 42.25C84.5508 43.1745 84.7786 44.0013 85.1562 44.7305C85.5469 45.4466 86.0938 46.013 86.7969 46.4297C87.5 46.8333 88.3529 47.0352 89.3555 47.0352C90.3971 47.0352 91.3672 46.9049 92.2656 46.6445C93.1771 46.3711 94.0625 45.974 94.9219 45.4531L96.4648 48.9688C95.5924 49.6719 94.4922 50.2578 93.1641 50.7266C91.849 51.1823 90.3385 51.4102 88.6328 51.4102ZM84.5508 38.3633H91.6016V37.8555C91.6016 36.9961 91.4844 36.2604 91.25 35.6484C91.0286 35.0234 90.6641 34.5417 90.1562 34.2031C89.6615 33.8646 89.0169 33.6953 88.2227 33.6953C87.4674 33.6953 86.8294 33.8971 86.3086 34.3008C85.7878 34.6914 85.3776 35.2318 85.0781 35.9219C84.7917 36.612 84.5964 37.3932 84.4922 38.2656L84.5508 38.3633ZM109.512 51.4102C107.48 51.4102 105.723 50.9544 104.238 50.043C102.767 49.1315 101.634 47.875 100.84 46.2734C100.046 44.6589 99.6484 42.8164 99.6484 40.7461V40.1602C99.6484 38.0768 100.052 36.2344 100.859 34.6328C101.667 33.0312 102.806 31.7747 104.277 30.8633C105.749 29.9388 107.48 29.4766 109.473 29.4766C111.374 29.4766 113.008 29.776 114.375 30.375C115.755 30.9609 116.875 31.6445 117.734 32.4258L117.695 38.4805H113.398L112.637 34.7109C112.324 34.3984 111.927 34.1445 111.445 33.9492C110.964 33.7539 110.475 33.6562 109.98 33.6562C108.939 33.6562 108.073 33.9167 107.383 34.4375C106.706 34.9583 106.198 35.7005 105.859 36.6641C105.521 37.6276 105.352 38.793 105.352 40.1602V40.7461C105.352 42.1914 105.54 43.3828 105.918 44.3203C106.296 45.2448 106.797 45.9284 107.422 46.3711C108.06 46.8138 108.77 47.0352 109.551 47.0352C110.553 47.0352 111.354 46.7747 111.953 46.2539C112.565 45.7201 112.982 44.9714 113.203 44.0078H118.086L118.145 44.125C117.923 45.6224 117.48 46.918 116.816 48.0117C116.165 49.1055 115.241 49.9453 114.043 50.5312C112.858 51.1172 111.348 51.4102 109.512 51.4102ZM129.004 51.4102C127.038 51.4102 125.521 50.8698 124.453 49.7891C123.398 48.7083 122.871 46.9961 122.871 44.6523V33.8711H119.961V29.8672H122.871V24.6914H128.555V29.8672H132.441V33.8711H128.555V44.6328C128.555 45.4531 128.724 46.0391 129.062 46.3906C129.414 46.7422 129.889 46.918 130.488 46.918C130.814 46.918 131.152 46.8984 131.504 46.8594C131.868 46.8073 132.181 46.7552 132.441 46.7031L132.93 50.8242C132.344 50.9935 131.706 51.1302 131.016 51.2344C130.339 51.3516 129.668 51.4102 129.004 51.4102ZM144.727 51.4102C142.708 51.4102 140.944 50.9674 139.434 50.082C137.923 49.1836 136.751 47.9531 135.918 46.3906C135.098 44.8281 134.688 43.0443 134.688 41.0391V40.2578C134.688 38.1615 135.078 36.306 135.859 34.6914C136.641 33.0638 137.741 31.7878 139.16 30.8633C140.592 29.9258 142.279 29.4635 144.219 29.4766C146.133 29.4766 147.741 29.8542 149.043 30.6094C150.345 31.3646 151.335 32.4518 152.012 33.8711C152.689 35.2904 153.027 37.0091 153.027 39.0273V42.1328H140.605L140.566 42.25C140.645 43.1745 140.872 44.0013 141.25 44.7305C141.641 45.4466 142.188 46.013 142.891 46.4297C143.594 46.8333 144.447 47.0352 145.449 47.0352C146.491 47.0352 147.461 46.9049 148.359 46.6445C149.271 46.3711 150.156 45.974 151.016 45.4531L152.559 48.9688C151.686 49.6719 150.586 50.2578 149.258 50.7266C147.943 51.1823 146.432 51.4102 144.727 51.4102ZM140.645 38.3633H147.695V37.8555C147.695 36.9961 147.578 36.2604 147.344 35.6484C147.122 35.0234 146.758 34.5417 146.25 34.2031C145.755 33.8646 145.111 33.6953 144.316 33.6953C143.561 33.6953 142.923 33.8971 142.402 34.3008C141.882 34.6914 141.471 35.2318 141.172 35.9219C140.885 36.612 140.69 37.3932 140.586 38.2656L140.645 38.3633ZM165.039 51V47.582L167.07 47.2891L176.113 22.5625H181.953L190.938 47.2891L192.969 47.582V51H183.281V47.582L185.254 47.2305L184.004 43.3242H174.004L172.754 47.2305L174.727 47.582V51H165.039ZM175.352 39.125H182.656L179.336 29.3789L179.062 28.5195H178.945L178.652 29.4375L175.352 39.125ZM204.082 59.5352C203.014 59.5352 201.816 59.3984 200.488 59.125C199.16 58.8516 197.988 58.4609 196.973 57.9531L198.027 53.8906C198.939 54.2812 199.902 54.5872 200.918 54.8086C201.947 55.043 202.904 55.1602 203.789 55.1602C205.312 55.1602 206.426 54.737 207.129 53.8906C207.845 53.0443 208.203 51.8659 208.203 50.3555V48.9688C207.578 49.763 206.842 50.3685 205.996 50.7852C205.15 51.2018 204.18 51.4102 203.086 51.4102C201.367 51.4102 199.889 50.9805 198.652 50.1211C197.415 49.2487 196.471 48.0312 195.82 46.4688C195.169 44.9062 194.844 43.0898 194.844 41.0195V40.6094C194.844 38.3828 195.169 36.4362 195.82 34.7695C196.471 33.1029 197.402 31.8073 198.613 30.8828C199.824 29.9453 201.276 29.4766 202.969 29.4766C204.232 29.4766 205.319 29.7435 206.23 30.2773C207.142 30.7982 207.917 31.5469 208.555 32.5234L208.965 29.8672H213.926V50.375C213.926 52.237 213.529 53.8516 212.734 55.2188C211.953 56.5859 210.827 57.6471 209.355 58.4023C207.884 59.1576 206.126 59.5352 204.082 59.5352ZM204.688 46.9766C205.495 46.9766 206.191 46.8203 206.777 46.5078C207.363 46.1823 207.839 45.7135 208.203 45.1016V35.9219C207.839 35.2839 207.357 34.7891 206.758 34.4375C206.172 34.0859 205.488 33.9102 204.707 33.9102C203.73 33.9102 202.936 34.1966 202.324 34.7695C201.712 35.3294 201.263 36.1107 200.977 37.1133C200.69 38.1029 200.547 39.2682 200.547 40.6094V41.0195C200.547 42.8685 200.866 44.3268 201.504 45.3945C202.142 46.4492 203.203 46.9766 204.688 46.9766ZM213.203 33.9883L210.723 29.8672H216.406V33.3047L213.203 33.9883ZM218.594 51V47.582L221.328 46.9961V33.8906L218.301 33.3047V29.8672H226.641L226.855 32.4844L226.895 32.9531C227.415 31.8073 228.06 30.9414 228.828 30.3555C229.596 29.7695 230.514 29.4766 231.582 29.4766C231.921 29.4766 232.292 29.5091 232.695 29.5742C233.099 29.6263 233.457 29.6979 233.77 29.7891L233.164 35.043L230.332 34.8867C229.525 34.8477 228.867 34.9844 228.359 35.2969C227.865 35.6094 227.422 36.0586 227.031 36.6445V46.9961L229.766 47.582V51H218.594ZM245.156 51.4102C243.073 51.4102 241.283 50.9544 239.785 50.043C238.288 49.1315 237.142 47.8685 236.348 46.2539C235.553 44.6263 235.156 42.7578 235.156 40.6484V40.2383C235.156 38.1419 235.553 36.2865 236.348 34.6719C237.142 33.0443 238.281 31.7747 239.766 30.8633C241.263 29.9388 243.047 29.4766 245.117 29.4766C247.214 29.4766 249.004 29.9388 250.488 30.8633C251.973 31.7747 253.112 33.0378 253.906 34.6523C254.701 36.2669 255.098 38.1289 255.098 40.2383V40.6484C255.098 42.7578 254.701 44.6263 253.906 46.2539C253.112 47.8685 251.973 49.1315 250.488 50.043C249.004 50.9544 247.227 51.4102 245.156 51.4102ZM245.156 47.0352C246.146 47.0352 246.953 46.7682 247.578 46.2344C248.203 45.7005 248.665 44.9583 248.965 44.0078C249.264 43.0443 249.414 41.9245 249.414 40.6484V40.2383C249.414 38.9883 249.264 37.888 248.965 36.9375C248.665 35.974 248.197 35.2253 247.559 34.6914C246.934 34.1445 246.12 33.8711 245.117 33.8711C244.141 33.8711 243.333 34.1445 242.695 34.6914C242.057 35.2253 241.589 35.974 241.289 36.9375C241.003 37.888 240.859 38.9883 240.859 40.2383V40.6484C240.859 41.9245 241.003 43.0443 241.289 44.0078C241.589 44.9714 242.057 45.7201 242.695 46.2539C243.333 46.7747 244.154 47.0352 245.156 47.0352Z" fill="white"/>
<path d="M302.325 24.6199C307.547 22.1178 310.298 18.9802 308.469 17.6121C306.641 16.2439 300.925 17.1632 295.704 19.6653C290.482 22.1675 287.731 25.305 289.56 26.6732C291.388 28.0414 297.104 27.1221 302.325 24.6199Z" fill="#29C16E"/>
<path d="M284.813 27.0771C286.384 26.1361 284.16 23.2787 279.845 20.6949C275.531 18.1112 270.759 16.7796 269.187 17.7206C267.616 18.6617 269.839 21.5191 274.154 24.1028C278.469 26.6865 283.241 28.0182 284.813 27.0771Z" fill="#29C16E"/>
<path d="M305.961 40.9797C308.246 39.885 306.711 36.4627 302.532 33.3359C298.354 30.2092 293.114 28.5621 290.829 29.6569C288.544 30.7518 290.079 34.1741 294.258 37.3007C298.437 40.4275 303.676 42.0746 305.961 40.9797Z" fill="#EF3C56"/>
<path d="M268.123 42.1589C268.123 45.416 270.284 48.5397 274.13 50.8427C277.976 53.1459 283.193 54.4397 288.632 54.4397C299.959 54.4397 316.867 43.3148 306.098 41.2165C294.282 38.915 288.833 30.1164 286.384 29.952C275.128 29.1956 268.123 35.3764 268.123 42.1589Z" fill="#EF3C56"/>
<path d="M263.01 15.8535C263.016 18.5015 264.204 21.1004 266.451 23.3811C268.698 25.6618 271.922 27.5413 275.79 28.825C273.763 29.4982 271.903 30.3378 270.264 31.3194C266.588 33.5185 264.16 36.3541 263.323 39.425C262.487 42.4959 263.284 45.6466 265.602 48.4312C267.921 51.2158 271.643 53.4933 276.242 54.9415C280.841 56.3895 286.085 56.935 291.23 56.5004C296.375 56.0659 301.162 54.6736 304.913 52.5203C308.664 50.367 311.189 47.562 312.131 44.5021C313.073 41.4421 312.385 38.2823 310.162 35.4697C307.94 32.6571 304.297 30.3342 299.749 28.8296C303.622 27.5477 306.851 25.6682 309.1 23.3864C311.35 21.1046 312.538 18.5037 312.542 15.8539C312.542 15.6105 312.462 15.3694 312.306 15.1445C312.151 14.9195 311.923 14.7152 311.635 14.543C311.348 14.3708 311.006 14.2343 310.631 14.1411C310.255 14.048 309.853 14 309.446 14.0001C306.192 13.9948 302.969 14.3761 299.963 15.1218C296.957 15.8675 294.228 16.9628 291.934 18.3444C290.294 19.3256 288.892 20.4393 287.768 21.6531C285.626 19.3362 282.488 17.4047 278.678 16.0591C274.869 14.7135 270.528 14.0028 266.106 14.0007C265.699 14.0006 265.297 14.0485 264.921 14.1416C264.546 14.2347 264.204 14.3711 263.917 14.5432C263.629 14.7152 263.401 14.9195 263.246 15.1444C263.09 15.3692 263.01 15.6102 263.01 15.8535ZM291.187 26.7846C291.876 24.5798 293.662 22.5513 296.311 20.9651C298.96 19.379 302.348 18.3093 306.03 17.8965C305.335 20.0999 303.547 22.1268 300.899 23.7124C298.252 25.298 294.867 26.3687 291.187 26.7846ZM300.904 33.9446C303.553 35.5288 305.34 37.5562 306.03 39.7599C302.352 39.3435 298.968 38.2732 296.321 36.6882C293.675 35.1033 291.887 33.0776 291.192 30.8752C294.872 31.2879 298.258 32.358 300.904 33.9446ZM274.641 33.941C277.418 32.2693 281.017 31.174 284.909 30.8156C285.638 34.0319 288.109 37.0163 291.941 39.3114C295.774 41.6065 300.758 43.086 306.129 43.523C305.676 45.2582 304.544 46.9047 302.824 48.3275C301.105 49.7502 298.847 50.9091 296.236 51.7088C293.625 52.5088 290.734 52.927 287.801 52.9294C284.868 52.9317 281.976 52.5183 279.361 51.7226C276.746 50.9268 274.484 49.7718 272.758 48.3517C271.032 46.9318 269.892 45.2871 269.431 43.5526C268.971 41.8182 269.203 40.043 270.109 38.3725C271.014 36.7019 272.567 35.1838 274.641 33.9418V33.941ZM269.52 17.8991C273.198 18.3154 276.581 19.3859 279.228 20.9709C281.875 22.5559 283.663 24.5818 284.358 26.7842C280.68 26.3678 277.297 25.2973 274.651 23.7123C272.004 22.1273 270.217 20.1015 269.521 17.8991H269.52Z" fill="#0E1E28"/>
</svg>
